<?xml version="1.0" standalone="no"?>
<!DOCTYPE svg PUBLIC "-//W3C//DTD SVG 20010904//EN"
 "http://www.w3.org/TR/2001/REC-SVG-20010904/DTD/svg10.dtd">
<svg version="1.0" xmlns="http://www.w3.org/2000/svg"
 width="1344.000000pt" height="1344.000000pt" viewBox="0 0 1344.000000 1344.000000"
 preserveAspectRatio="xMidYMid meet">
<metadata>
Created by potrace 1.14, written by Peter Selinger 2001-2017
</metadata>
<g transform="translate(0.000000,1344.000000) scale(0.100000,-0.100000)"
fill="#000000" stroke="none">
<path d="M4656 13185 c-190 -78 -265 -300 -346 -1025 -29 -258 -72 -512 -126
-735 -127 -531 -155 -652 -183 -795 -95 -485 -84 -693 63 -1255 31 -115 52
-212 48 -215 -4 -3 -38 -14 -77 -24 -194 -49 -413 -197 -515 -346 -94 -138
-177 -351 -229 -587 -53 -236 -62 -322 -71 -623 -6 -210 -14 -336 -33 -480
-33 -247 -68 -603 -74 -742 -9 -190 37 -263 224 -361 61 -31 127 -71 149 -88
55 -44 187 -107 256 -121 32 -7 58 -16 58 -21 0 -4 -13 -61 -29 -125 -47 -185
-68 -302 -95 -522 -71 -576 -63 -773 46 -1205 47 -186 119 -410 176 -545 22
-52 56 -147 75 -210 115 -365 336 -632 939 -1132 75 -62 203 -173 285 -246
244 -220 512 -432 803 -635 248 -173 529 -302 872 -403 68 -20 186 -62 263
-94 387 -163 748 -290 1025 -362 277 -72 369 -59 519 73 40 35 92 75 115 89
133 78 258 204 368 371 382 575 1018 2237 1159 3024 26 151 36 431 20 571 -16
136 -55 304 -106 461 -38 114 -45 153 -55 270 -32 412 -91 556 -330 808 l-111
117 50 33 c125 83 198 164 257 288 67 143 68 246 0 414 -19 48 -32 91 -29 96
3 5 42 26 87 47 96 45 192 137 231 222 72 158 106 419 71 544 -10 32 -28 75
-40 94 -13 19 -26 58 -29 85 -4 28 -21 77 -37 111 -33 67 -74 102 -156 133
l-49 19 3 168 c3 145 0 180 -17 247 -28 105 -64 169 -138 244 -102 103 -265
170 -586 242 -127 28 -128 29 -185 83 -91 86 -211 159 -345 208 -142 52 -196
50 -229 -6 -14 -24 -26 -34 -37 -31 -177 53 -357 101 -440 117 -176 34 -384
45 -604 32 -178 -10 -199 -10 -292 8 -55 11 -110 20 -122 20 -27 0 -40 19 -22
31 21 13 91 11 224 -7 68 -9 164 -14 220 -12 85 3 109 8 157 31 69 34 152 117
215 214 44 67 55 77 126 115 165 87 196 190 136 463 -30 142 -75 276 -110 328
-17 26 -53 66 -80 89 -29 25 -60 63 -75 95 -26 51 -26 59 -21 171 4 85 22 200
65 422 33 168 66 349 72 403 22 175 -2 272 -82 324 -38 26 -49 28 -138 28
l-97 0 -16 75 c-9 41 -21 102 -26 134 -20 111 -91 195 -210 248 -36 16 -86 39
-111 50 -25 11 -75 23 -113 26 -82 6 -134 -12 -210 -70 -134 -104 -180 -173
-232 -343 -27 -89 -89 -235 -99 -235 -3 0 -5 89 -5 198 1 338 -42 454 -211
562 -143 92 -432 169 -793 210 -114 13 -155 4 -188 -41 -11 -16 -25 -29 -30
-29 -6 0 -37 19 -71 41 -95 65 -276 147 -383 174 -134 34 -256 34 -339 0z
m275 -248 c88 -30 168 -79 249 -155 59 -53 72 -72 89 -125 43 -133 50 -220 26
-337 -22 -107 -10 -182 36 -234 16 -19 38 -62 49 -97 35 -114 96 -174 191
-186 77 -11 198 49 375 183 l83 64 120 17 c67 9 124 14 127 11 7 -8 46 -210
72 -377 14 -87 26 -132 41 -152 l21 -28 -31 -36 -31 -35 -169 0 c-145 0 -179
-3 -231 -21 -171 -57 -361 -181 -513 -333 -120 -121 -185 -205 -238 -312 -19
-38 -53 -103 -75 -144 -104 -193 -124 -317 -128 -765 -2 -355 -4 -373 -69
-750 l-5 -30 -123 1 c-111 1 -130 4 -208 32 -48 18 -110 35 -139 39 l-53 8
-58 265 c-32 146 -73 348 -91 450 -30 173 -33 200 -32 410 0 253 13 356 85
700 108 522 139 680 159 817 64 449 129 786 179 937 66 199 130 238 292 183z
m813 -297 c15 -5 38 -7 52 -4 27 7 74 58 74 80 0 17 15 14 145 -28 127 -41
213 -86 267 -139 38 -38 51 -61 72 -128 33 -105 34 -122 4 -93 -74 69 -185 54
-332 -46 -66 -45 -83 -51 -172 -67 -54 -9 -149 -19 -210 -22 l-111 -6 -11 99
c-11 94 -10 103 14 179 36 118 54 200 54 252 l0 45 64 -56 c35 -30 76 -60 90
-66z m1604 -192 c60 -58 122 -154 122 -190 0 -15 -4 -28 -9 -28 -17 0 -89
-110 -106 -159 -11 -35 -13 -55 -6 -74 7 -19 2 -99 -19 -289 -33 -288 -37
-380 -17 -395 6 -6 35 -18 62 -29 28 -10 60 -24 72 -32 20 -12 25 -11 58 20
41 38 41 38 89 303 58 316 67 353 90 359 37 10 102 6 120 -7 16 -12 16 -19 6
-77 -6 -35 -47 -174 -91 -309 -194 -597 -188 -688 74 -1074 120 -177 143 -233
134 -330 -5 -52 -10 -63 -44 -95 -22 -20 -48 -49 -59 -64 -36 -50 -197 -134
-304 -158 -25 -5 -124 -14 -220 -20 -521 -32 -580 -50 -611 -185 -14 -61 -15
-119 -8 -496 l4 -216 -57 -69 c-51 -62 -65 -72 -140 -104 -142 -60 -246 -137
-425 -316 -106 -107 -163 -158 -167 -148 -5 14 -293 246 -420 339 -50 37 -75
63 -93 100 -14 28 -49 86 -78 130 -44 69 -51 85 -42 105 13 37 3 176 -34 435
l-32 230 21 145 c12 80 33 255 47 389 25 232 55 422 76 478 31 82 268 282 564
475 190 124 191 125 325 130 76 3 125 10 145 20 17 8 52 18 79 22 114 15 227
99 284 212 45 89 86 225 143 469 54 232 88 318 189 474 34 52 44 61 82 70 24
5 67 8 97 6 48 -3 59 -9 99 -47z m-469 -2919 c-5 -19 -8 -89 -5 -164 l5 -130
-10 100 c-9 96 -6 206 7 227 12 19 14 1 3 -33z m809 -354 c397 -88 496 -107
945 -180 217 -35 294 -51 350 -75 106 -44 133 -63 140 -98 8 -40 25 -227 30
-325 4 -75 3 -77 -17 -71 -39 13 -130 7 -191 -11 -46 -14 -97 -19 -220 -20
-146 -1 -166 -3 -233 -28 -145 -52 -246 -147 -424 -399 -71 -102 -95 -128
-113 -128 -13 0 -37 -12 -54 -26 -27 -23 -31 -32 -31 -78 0 -50 -3 -55 -50
-103 -42 -42 -50 -57 -50 -88 0 -27 7 -44 29 -66 16 -16 37 -29 45 -29 9 0 16
-8 16 -17 1 -79 25 -271 45 -348 32 -128 83 -221 165 -303 l66 -67 91 -320
c106 -373 118 -420 134 -539 21 -165 -1 -297 -101 -596 -38 -113 -81 -253 -94
-310 -32 -134 -72 -392 -91 -590 -8 -85 -28 -245 -45 -355 -33 -220 -39 -404
-19 -551 9 -63 9 -89 -1 -115 -19 -54 -27 -324 -20 -744 5 -371 7 -392 27
-437 15 -34 32 -53 56 -64 32 -15 35 -21 40 -71 6 -56 28 -92 70 -115 27 -14
105 19 121 51 15 29 30 139 46 331 10 124 37 250 53 250 8 0 103 -25 136 -36
11 -4 10 -8 -7 -19 -28 -20 -45 -75 -33 -107 16 -43 60 -71 101 -63 44 8 76 8
121 0 31 -6 41 -3 70 23 l34 30 0 94 c0 151 -39 208 -178 263 -94 38 -138 90
-212 251 l-58 127 5 195 c7 232 1 265 -74 447 l-53 130 1 180 c0 163 3 193 31
320 17 77 59 266 92 420 55 253 104 451 113 461 5 4 197 -69 274 -105 70 -33
157 -91 223 -149 l43 -38 -12 -59 c-8 -38 -13 -170 -14 -365 -2 -265 -5 -311
-21 -353 -50 -137 15 -242 323 -520 165 -148 177 -157 220 -157 42 0 92 46 92
85 0 34 -25 82 -50 95 -11 6 -20 20 -20 31 0 28 -14 52 -83 138 -80 101 -173
242 -187 287 -14 41 -9 119 13 239 8 44 18 111 22 148 4 37 10 67 15 65 4 -2
69 -82 145 -178 239 -304 275 -338 335 -325 38 8 80 59 80 95 0 20 6 31 20 35
30 10 60 54 60 90 0 27 -39 81 -246 341 -396 496 -518 630 -688 758 -121 91
-322 204 -417 235 l-35 11 7 53 c21 147 6 326 -52 603 -16 78 -29 144 -29 148
0 3 53 -20 118 -53 213 -107 452 -212 575 -253 67 -22 157 -58 201 -79 43 -21
83 -39 90 -39 13 0 214 -335 275 -457 60 -120 102 -226 171 -433 l62 -185 -5
-320 c-8 -446 -36 -709 -128 -1160 -108 -537 -243 -1039 -423 -1570 -214 -635
-343 -866 -670 -1203 -124 -127 -146 -138 -256 -129 -36 3 -132 22 -215 42
-215 52 -297 69 -600 125 -300 56 -315 59 -500 102 -107 26 -160 45 -300 113
-180 86 -444 228 -610 328 -262 157 -719 469 -1015 693 -142 106 -211 169
-365 325 -389 397 -602 664 -743 929 -70 132 -83 212 -102 641 -7 153 -18 273
-34 370 -14 79 -38 223 -55 319 -88 521 -89 734 0 1092 39 160 50 184 87 193
50 11 106 58 173 147 35 46 113 137 174 203 61 66 244 268 406 450 364 408
437 484 1030 1075 262 261 545 552 629 645 193 215 219 242 272 286 24 20 56
61 72 90 16 30 55 90 87 134 101 141 159 259 159 324 l0 29 108 7 c59 3 112 8
117 10 6 2 11 4 13 4 2 1 173 -37 380 -84z m-3429 -204 c10 -7 0 -15 -40 -32
-228 -96 -481 -269 -590 -404 -29 -36 -55 -63 -57 -60 -3 2 17 48 43 101 57
114 133 201 235 269 136 90 357 158 409 126z m627 -204 c104 -62 230 -141 280
-175 l90 -61 48 -108 c109 -239 199 -405 247 -453 l47 -47 -81 -89 c-184 -201
-392 -418 -741 -773 -428 -437 -600 -621 -659 -707 -39 -57 -44 -61 -73 -57
-18 3 -44 -2 -62 -11 -29 -15 -35 -28 -68 -135 l-37 -119 -36 5 c-77 10 -149
26 -223 49 -121 38 -134 72 -149 388 -5 110 -16 283 -24 385 -38 483 -38 475
-10 642 48 290 101 494 160 624 45 99 147 253 214 322 108 113 321 248 506
322 105 42 326 110 360 111 12 0 106 -51 211 -113z m4788 -110 c215 -122 265
-212 221 -406 l-16 -68 -67 -6 c-37 -4 -132 -10 -212 -13 -80 -4 -159 -12
-177 -20 -18 -7 -35 -9 -38 -4 -3 5 4 64 17 132 22 126 32 413 16 485 l-7 32
76 -35 c42 -19 126 -62 187 -97z m-3979 -467 c44 -34 81 -66 83 -69 1 -4 -11
-19 -27 -35 l-28 -27 -32 37 c-36 44 -112 184 -90 168 8 -6 50 -39 94 -74z
m3272 -46 c59 -34 177 -131 244 -201 53 -54 60 -67 99 -183 70 -208 110 -286
292 -566 112 -173 117 -191 118 -417 0 -156 -19 -257 -66 -355 -47 -96 -89
-126 -179 -126 -77 0 -80 2 -299 184 -87 72 -245 195 -350 274 -332 247 -476
380 -522 481 -15 33 -33 104 -45 176 -11 66 -26 134 -35 151 -27 53 -99 68
-149 30 -11 -8 2 7 30 33 114 109 332 268 698 507 80 52 93 53 164 12z m793
-309 c168 -18 330 -49 372 -71 l30 -16 -7 -91 c-12 -165 -68 -483 -88 -503 -3
-4 -39 12 -80 35 -41 23 -86 41 -100 41 -24 0 -28 8 -57 103 -42 135 -102 258
-191 392 -41 61 -77 115 -82 122 -5 8 2 11 25 7 18 -2 98 -11 178 -19z m-1656
-620 c45 -145 186 -296 501 -535 152 -116 155 -121 30 -55 -151 79 -187 105
-196 139 -13 47 -47 76 -91 76 -33 0 -38 3 -38 24 0 37 -46 76 -90 76 -42 0
-57 13 -89 78 -35 69 -61 188 -66 297 l-5 100 14 -75 c8 -41 21 -97 30 -125z
m556 -1795 c52 -27 93 -49 90 -49 -17 -2 -204 76 -208 87 -7 21 20 13 118 -38z"/>
<path d="M6060 10863 c-8 -3 -27 -16 -41 -30 -22 -20 -30 -22 -52 -14 -41 16
-69 0 -178 -102 -176 -163 -254 -279 -285 -427 -14 -63 -15 -110 -8 -300 4
-124 8 -270 9 -325 0 -55 6 -113 13 -128 7 -16 12 -59 12 -97 0 -64 2 -70 31
-94 52 -44 115 -32 145 27 14 26 16 51 11 149 l-7 117 56 128 c92 210 395 925
410 966 22 62 -10 122 -72 132 -16 2 -36 2 -44 -2z m-274 -562 l-101 -239 -3
59 c-7 137 33 242 133 347 37 40 69 72 70 72 1 0 -43 -108 -99 -239z"/>
<path d="M5282 6938 c-32 -16 -314 -372 -510 -644 -160 -223 -247 -365 -348
-569 -155 -315 -216 -534 -217 -780 -1 -191 29 -313 168 -670 34 -88 70 -183
79 -211 9 -29 26 -60 36 -69 11 -10 23 -34 26 -54 15 -80 74 -116 138 -86 61
29 63 48 27 283 -43 287 -55 431 -47 607 9 235 66 596 141 895 87 345 174 518
411 811 118 146 124 156 124 201 0 25 13 48 52 97 43 52 53 71 53 102 0 67
-75 116 -133 87z m-756 -1535 c-36 -183 -74 -457 -84 -598 l-8 -120 -18 75
c-34 137 -20 347 35 527 29 92 91 254 96 249 2 -2 -7 -62 -21 -133z"/>
<path d="M7850 6409 c-187 -106 -319 -198 -406 -284 -49 -49 -99 -108 -110
-130 -21 -44 -25 -133 -10 -265 8 -73 7 -78 -31 -180 -22 -58 -66 -163 -98
-233 -57 -125 -60 -130 -134 -191 -91 -77 -161 -149 -305 -319 -88 -102 -120
-134 -168 -159 -73 -39 -98 -69 -98 -119 0 -33 -10 -49 -75 -124 -67 -76 -75
-90 -75 -126 0 -56 34 -89 91 -89 39 0 48 5 94 53 27 28 94 104 148 168 80 96
110 125 170 160 157 93 272 203 354 339 l48 81 3 -60 c3 -54 0 -65 -39 -128
-23 -37 -134 -239 -247 -448 -204 -378 -225 -415 -282 -489 -17 -21 -30 -46
-30 -55 0 -9 -9 -27 -20 -41 -12 -16 -20 -41 -20 -67 0 -34 5 -46 31 -67 63
-54 108 -32 190 93 35 53 96 130 134 171 142 151 190 207 259 300 132 177 182
300 207 514 11 97 13 101 75 197 81 125 121 204 130 255 5 34 2 45 -20 71 -33
39 -66 47 -111 29 l-34 -15 22 37 c58 95 75 180 86 436 11 253 19 286 78 331
52 40 120 57 308 79 72 8 144 20 162 26 113 40 61 207 -57 183 -25 -5 -30 -2
-30 15 0 11 -12 34 -26 51 -35 42 -89 42 -164 0z"/>
</g>
</svg>
